{
	"asset":{
		"generator":"Khronos glTF Blender I/O v4.1.63",
		"version":"2.0"
	},
	"scene":0,
	"scenes":[
		{
			"name":"Scene",
			"nodes":[
				0
			]
		}
	],
	"nodes":[
		{
			"mesh":0,
			"name":"Vert.001"
		}
	],
	"materials":[
		{
			"doubleSided":true,
			"name":"Material.003",
			"pbrMetallicRoughness":{
				"baseColorFactor":[
					0.8000000715255737,
					0.38029322028160095,
					0.24521523714065552,
					1
				],
				"metallicFactor":0,
				"roughnessFactor":0.5
			}
		},
		{
			"doubleSided":true,
			"name":"Material.002",
			"pbrMetallicRoughness":{
				"baseColorFactor":[
					0.8000000715255737,
					0.4055725336074829,
					0.2349160611629486,
					1
				],
				"metallicFactor":0,
				"roughnessFactor":0.5
			}
		},
		{
			"doubleSided":true,
			"name":"Material.001",
			"pbrMetallicRoughness":{
				"baseColorFactor":[
					0.16146498918533325,
					0.033849623054265976,
					0.020790256559848785,
					1
				],
				"metallicFactor":0,
				"roughnessFactor":0.5
			}
		},
		{
			"doubleSided":true,
			"name":"Material",
			"pbrMetallicRoughness":{
				"baseColorFactor":[
					0.16146498918533325,
					0.033849623054265976,
					0.020790256559848785,
					1
				],
				"metallicFactor":0,
				"roughnessFactor":0.5
			}
		},
		{
			"doubleSided":true,
			"name":"Material.004",
			"pbrMetallicRoughness":{
				"baseColorFactor":[
					0.8000000715255737,
					0.5257214903831482,
					0.28732335567474365,
					1
				],
				"metallicFactor":0,
				"roughnessFactor":0.5
			}
		}
	],
	"meshes":[
		{
			"name":"Vert.001",
			"primitives":[
				{
					"attributes":{
						"POSITION":0,
						"NORMAL":1,
						"TEXCOORD_0":2
					},
					"indices":3,
					"material":0
				},
				{
					"attributes":{
						"POSITION":4,
						"NORMAL":5,
						"TEXCOORD_0":6
					},
					"indices":7,
					"material":1
				},
				{
					"attributes":{
						"POSITION":8,
						"NORMAL":9,
						"TEXCOORD_0":10
					},
					"indices":11,
					"material":2
				},
				{
					"attributes":{
						"POSITION":12,
						"NORMAL":13,
						"TEXCOORD_0":14
					},
					"indices":15,
					"material":3
				},
				{
					"attributes":{
						"POSITION":16,
						"NORMAL":17,
						"TEXCOORD_0":18
					},
					"indices":19,
					"material":4
				}
			]
		}
	],
	"accessors":[
		{
			"bufferView":0,
			"componentType":5126,
			"count":8097,
			"max":[
				0.49836212396621704,
				0.018467994406819344,
				0.0990484282374382
			],
			"min":[
				-0.6470803618431091,
				-0.7927694916725159,
				-0.04645900800824165
			],
			"type":"VEC3"
		},
		{
			"bufferView":1,
			"componentType":5126,
			"count":8097,
			"type":"VEC3"
		},
		{
			"bufferView":2,
			"componentType":5126,
			"count":8097,
			"type":"VEC2"
		},
		{
			"bufferView":3,
			"componentType":5123,
			"count":54522,
			"type":"SCALAR"
		},
		{
			"bufferView":4,
			"componentType":5126,
			"count":3253,
			"max":[
				0.7133122086524963,
				1.0141947269439697,
				0.15305371582508087
			],
			"min":[
				-0.9613643288612366,
				-1.5140141248703003,
				-0.18692266941070557
			],
			"type":"VEC3"
		},
		{
			"bufferView":5,
			"componentType":5126,
			"count":3253,
			"type":"VEC3"
		},
		{
			"bufferView":6,
			"componentType":5126,
			"count":3253,
			"type":"VEC2"
		},
		{
			"bufferView":7,
			"componentType":5123,
			"count":13440,
			"type":"SCALAR"
		},
		{
			"bufferView":8,
			"componentType":5126,
			"count":468,
			"max":[
				0.251958966255188,
				0.7256999015808105,
				0.22538021206855774
			],
			"min":[
				-0.6841874718666077,
				0.2170550674200058,
				-0.22538025677204132
			],
			"type":"VEC3"
		},
		{
			"bufferView":9,
			"componentType":5126,
			"count":468,
			"type":"VEC3"
		},
		{
			"bufferView":10,
			"componentType":5126,
			"count":468,
			"type":"VEC2"
		},
		{
			"bufferView":11,
			"componentType":5123,
			"count":2112,
			"type":"SCALAR"
		},
		{
			"bufferView":12,
			"componentType":5126,
			"count":880,
			"max":[
				0.46073827147483826,
				0.6985887885093689,
				0.3058086633682251
			],
			"min":[
				-0.1909438669681549,
				0.14775051176548004,
				-0.3058086037635803
			],
			"type":"VEC3"
		},
		{
			"bufferView":13,
			"componentType":5126,
			"count":880,
			"type":"VEC3"
		},
		{
			"bufferView":14,
			"componentType":5126,
			"count":880,
			"type":"VEC2"
		},
		{
			"bufferView":15,
			"componentType":5123,
			"count":4416,
			"type":"SCALAR"
		},
		{
			"bufferView":16,
			"componentType":5126,
			"count":520,
			"max":[
				-0.23836301267147064,
				0.4246790409088135,
				0.24617448449134827
			],
			"min":[
				-0.4796273708343506,
				0.18341468274593353,
				-0.25140443444252014
			],
			"type":"VEC3"
		},
		{
			"bufferView":17,
			"componentType":5126,
			"count":520,
			"type":"VEC3"
		},
		{
			"bufferView":18,
			"componentType":5126,
			"count":520,
			"type":"VEC2"
		},
		{
			"bufferView":19,
			"componentType":5123,
			"count":2304,
			"type":"SCALAR"
		}
	],
	"bufferViews":[
		{
			"buffer":0,
			"byteLength":97164,
			"byteOffset":0,
			"target":34962
		},
		{
			"buffer":0,
			"byteLength":97164,
			"byteOffset":97164,
			"target":34962
		},
		{
			"buffer":0,
			"byteLength":64776,
			"byteOffset":194328,
			"target":34962
		},
		{
			"buffer":0,
			"byteLength":109044,
			"byteOffset":259104,
			"target":34963
		},
		{
			"buffer":0,
			"byteLength":39036,
			"byteOffset":368148,
			"target":34962
		},
		{
			"buffer":0,
			"byteLength":39036,
			"byteOffset":407184,
			"target":34962
		},
		{
			"buffer":0,
			"byteLength":26024,
			"byteOffset":446220,
			"target":34962
		},
		{
			"buffer":0,
			"byteLength":26880,
			"byteOffset":472244,
			"target":34963
		},
		{
			"buffer":0,
			"byteLength":5616,
			"byteOffset":499124,
			"target":34962
		},
		{
			"buffer":0,
			"byteLength":5616,
			"byteOffset":504740,
			"target":34962
		},
		{
			"buffer":0,
			"byteLength":3744,
			"byteOffset":510356,
			"target":34962
		},
		{
			"buffer":0,
			"byteLength":4224,
			"byteOffset":514100,
			"target":34963
		},
		{
			"buffer":0,
			"byteLength":10560,
			"byteOffset":518324,
			"target":34962
		},
		{
			"buffer":0,
			"byteLength":10560,
			"byteOffset":528884,
			"target":34962
		},
		{
			"buffer":0,
			"byteLength":7040,
			"byteOffset":539444,
			"target":34962
		},
		{
			"buffer":0,
			"byteLength":8832,
			"byteOffset":546484,
			"target":34963
		},
		{
			"buffer":0,
			"byteLength":6240,
			"byteOffset":555316,
			"target":34962
		},
		{
			"buffer":0,
			"byteLength":6240,
			"byteOffset":561556,
			"target":34962
		},
		{
			"buffer":0,
			"byteLength":4160,
			"byteOffset":567796,
			"target":34962
		},
		{
			"buffer":0,
			"byteLength":4608,
			"byteOffset":571956,
			"target":34963
		}
	],
	"buffers":[
		{
			"byteLength":576564,
			"uri":"anatomy%20%20digestion%20.bin"
		}
	]
}
